<svg xmlns="http://www.w3.org/2000/svg" xmlns:ev="http://www.w3.org/2001/xml-events" xmlns:xlink="http://www.w3.org/1999/xlink" width="693.782" height="514.588" class="st34" color-interpolation-filters="sRGB" viewBox="0 0 520.337 385.941" xml:space="preserve"><style type="text/css">.st1{fill:#ccc;stroke:#fff;stroke-linecap:round;stroke-linejoin:round;stroke-width:.5}.st2{stroke:#000;stroke-linecap:butt;stroke-width:.375}.st2,.st3{fill:#92aa4c}.st3,.st4,.st5,.st6,.st7,.st8{stroke-linecap:butt}.st3,.st4,.st5,.st6,.st7,.st8{stroke:none;stroke-width:.75}.st4{fill:#6aac91}.st5{fill:#000;fill-opacity:.3}.st6{fill:#bbfff4;fill-opacity:.4}.st7,.st8{fill:#fff;fill-opacity:.3}.st8{fill:#e6f9ff}.st10{fill:none;stroke-linecap:butt}.st10,.st11,.st12{stroke:#000}.st11,.st12,.st13,.st14,.st9{stroke-linecap:butt}.st9{fill:none;stroke:#000;stroke-width:.1125}.st10,.st11{stroke-width:.75}.st11{fill:#766f54}.st12{fill:#967b4c;stroke-width:.375}.st13,.st14{fill:#777677;stroke:none;stroke-width:.75}.st14{fill:#4d4c4c}.st15,.st16{stroke:#000;stroke-width:.375}.st15{fill:none;stroke-linecap:butt}.st16{fill:#6aac91}.st16,.st17,.st18{stroke-linecap:butt}.st17{fill:#99999a;stroke:#000;stroke-width:.1875}.st18{stroke:none;stroke-width:.75}.st18,.st19{fill:#000}.st20,.st21{stroke:none;stroke-linecap:butt;stroke-width:.75}.st21{fill:#92aa4c;stroke:#000;stroke-width:.2625}.st22{fill:#6aac91}.st23{stroke:#fff;stroke-linecap:round;stroke-linejoin:round;stroke-width:.5}.st24{fill:#000;font-family:Cascadia Code;font-size:.833336em}.st25{fill:#766f54;stroke:#000;stroke-linecap:round;stroke-linejoin:round;stroke-width:.375}.st26{fill:#1c1a18}.st27,.st28,.st29{stroke:none;stroke-linecap:round;stroke-linejoin:round;stroke-width:.75}.st28,.st29{fill:#6aac91;stroke:#fff;stroke-width:.5}.st29{fill:#766f54}.st30{fill:#fff;font-family:Calibri;font-size:.833336em}.st31{fill:#615b44;stroke:none}.st31,.st32{stroke-linecap:butt;stroke-width:.75}.st32,.st33{stroke:none}.st32{fill:#578e78}.st33{fill:none;stroke-linecap:round;stroke-linejoin:round;stroke-width:.5}.st34{fill:none;fill-rule:evenodd;font-size:12px;overflow:visible;stroke-linecap:square;stroke-miterlimit:3}</style><g><title>Page-1</title><g id="shape672-1" transform="translate(215.735,-157.427)"><title>Rectangle.27</title><rect width="304.351" height="228.264" x="0" y="157.677" class="st1"/></g><g id="group364-3" transform="translate(367.591,-192.225)"><title>Lounge chair</title><g id="shape365-4" transform="translate(18.2745,0)"><title>Sheet.365</title><path d="M0 344.42 L0 339.59 L30.73 339.59 C31.81 339.59 32.69 340.68 32.69 342.01 C32.69 343.34 31.81 344.42 30.73 344.42 L0 344.42 ZM0 385.94 L0 381.12 L30.73 381.12 C31.81 381.12 32.69 382.2 32.69 383.53 C32.69 384.86 31.81 385.94 30.73 385.94 L0 385.94 Z" class="st2"/></g><g id="shape366-6" transform="translate(0,-3.89522)"><title>Sheet.366</title><path d="M87.88 349.36 L87.88 349.36 L36.82 349.36 C34.17 349.36 29.85 349.21 27.21 349.02 L4.8 347.43 C2.16 347.24 0 349.26 0 351.91 L0 381.44 C0 384.1 2.16 386.12 4.8 385.93 L27.21 384.34 C29.84 384.15 34.17 384 36.82 384 L87.88 384 C90.53 384 92.69 381.83 92.69 379.18 L92.69 354.18 C92.69 351.53 90.53 349.36 87.88 349.36 Z" class="st3"/></g><g id="shape367-8" transform="translate(0,-3.89607)"><title>Sheet.367</title><path d="M32.01 354.18 L32.01 354.18 L32.01 379.18 C32.01 381.83 32.01 384 32.01 384 C32.01 384 29.85 384.15 27.21 384.34 L4.8 385.93 C2.16 386.12 0 384.1 0 381.44 L0 351.91 C0 349.26 2.16 347.24 4.8 347.43 L27.2 349.02 C29.84 349.21 32.01 349.36 32.01 349.36 C32.01 349.36 32.01 351.53 32.01 354.18 Z" class="st3"/></g><g id="shape368-10" transform="translate(1.01429,-5.75675)"><title>Sheet.368</title><path d="M85.28 353.46 L35.97 353.46 C33.32 353.46 29 353.27 26.36 353.04 L4.79 351.16 C2.16 350.93 0 352.91 0 355.56 L0 381.52 C0 384.17 2.16 386.15 4.79 385.92 L26.36 384.04 C29 383.81 33.32 383.62 35.97 383.62 L85.28 383.62 C87.92 383.62 90.09 381.45 90.09 378.79 L90.09 358.29 C90.09 355.63 87.92 353.46 85.28 353.46 Z" class="st4"/></g><g id="shape369-12" transform="translate(1.05663,-5.75758)"><title>Sheet.369</title><path d="M31 353.46 L31 383.62 L4.79 385.92 C2.16 386.15 0 384.17 0 381.52 L0 355.56 C0 352.91 2.16 350.93 4.79 351.16 L31 353.46 Z" class="st4"/></g><g id="shape370-14" transform="translate(31.4564,-7.95514)"><title>Sheet.370</title><path d="M0 355.6 L0.71 355.66 L0.71 385.81 L0 385.94 L0 355.6 Z" class="st5"/></g><g id="shape371-16" transform="translate(1.06144,-5.72642)"><title>Sheet.371</title><path d="M89.07 378.18 L89.07 378.18 L89.07 358.9 C89.07 356.39 86.95 354.34 84.37 354.34 L36.18 354.34 C33.59 354.34 29.37 354.16 26.79 353.94 L5.7 352.16 C3.13 351.94 1.02 353.81 1.02 356.32 L1.02 380.76 C1.02 383.27 3.13 385.14 5.7 384.92 L26.79 383.14 C29.37 382.92 33.59 382.74 36.18 382.74 L84.37 382.74 C86.95 382.74 89.07 380.69 89.07 378.18 ZM85.28 353.46 C87.92 353.46 90.09 355.63 90.09 358.29 L90.09 378.79 C90.09 381.45 87.92 383.62 85.28 383.62 L35.97 383.62 C33.32 383.62 29 383.81 26.36 384.04 L4.79 385.92 C2.16 386.15 0 384.17 0 381.52 L0 355.56 C0 352.91 2.16 350.93 4.79 351.16 L26.36 353.04 C29 353.27 33.32 353.46 35.97 353.46 L85.28 353.46 Z" class="st6"/></g><g id="shape372-18" transform="translate(3.86758,-14.3107)"><title>Sheet.372</title><path d="M0 385.05 L0 368.99 C0 368.46 0.43 368.03 0.96 368.03 L9.4 368.03 C9.93 368.03 10.36 368.46 10.36 368.99 L10.36 384.24 C10.36 384.77 9.93 385.24 9.4 385.28 L0.96 385.94 C0.43 385.98 0 385.58 0 385.05 Z" class="st5"/></g><g id="shape373-20" transform="translate(2.69932,-14.2374)"><title>Sheet.373</title><path d="M9.91 368.21 L0.82 367.39 C0.37 367.39 0 367.76 0 368.21 L0 385.12 C0 385.57 0.37 385.94 0.82 385.94 L9.91 384.98 C10.36 384.98 10.73 384.62 10.73 384.17 L10.73 369.03 C10.73 368.58 10.36 368.21 9.91 368.21 Z" class="st4"/></g><g id="shape374-22" transform="translate(2.69932,-16.1273)"><title>Sheet.374</title><path d="M0 373.13 L0 371.51 L10.73 371.51 L10.73 373.13 L0 373.13 ZM0 376.26 L0 374.65 L10.73 374.65 L10.73 376.26 L0 376.26 ZM0 379.36 L0 377.75 L10.73 377.75 L10.73 379.36 L0 379.36 ZM0 382.55 L0 380.94 L10.73 380.94 L10.73 382.55 L0 382.55 ZM0 385.94 L0 384.33 L10.73 384.33 L10.73 385.94 L0 385.94 Z" class="st7"/></g><g id="shape375-24" transform="translate(2.69932,-14.2374)"><title>Sheet.375</title><path d="M0 368.21 C0 367.76 0.37 367.39 0.82 367.39 L7.7 368.01 L9.16 368.14 L1.46 367.98 C0.98 367.98 0.58 368.38 0.58 368.86 L0.58 384.46 C0.58 384.95 0.98 385.35 1.46 385.35 L9.3 385.05 L7.47 385.24 L0.82 385.94 C0.37 385.94 0 385.57 0 385.12 L0 368.21 Z" class="st8"/></g><g id="shape376-26" transform="translate(2.69932,-14.2374)"><title>Sheet.376</title><path d="M9.91 368.21 L0.82 367.39 C0.37 367.39 0 367.76 0 368.21 L0 385.12 C0 385.57 0.37 385.94 0.82 385.94 L9.91 384.98 C10.36 384.98 10.73 384.62 10.73 384.17 L10.73 369.03 C10.73 368.58 10.36 368.21 9.91 368.21 Z" class="st9"/></g><g id="shape377-28" transform="translate(0,-3.89522)"><title>Sheet.377</title><path d="M87.88 349.36 L87.88 349.36 L36.82 349.36 C34.17 349.36 29.85 349.21 27.21 349.02 L4.8 347.43 C2.16 347.24 0 349.26 0 351.91 L0 381.44 C0 384.1 2.16 386.12 4.8 385.93 L27.21 384.34 C29.84 384.15 34.17 384 36.82 384 L87.88 384 C90.53 384 92.69 381.83 92.69 379.18 L92.69 354.18 C92.69 351.53 90.53 349.36 87.88 349.36 Z" class="st10"/></g></g><g id="group627-30" transform="translate(632.964,35.0471) rotate(90)"><title>Desk</title><g id="shape628-31"><title>Sheet.628</title><path d="M28.7 339.08 L28.7 375.22 L41.54 375.22 L41.54 339.08 L28.7 339.08 ZM28.65 385.94 L28.65 328.36 L0 328.36 L0 385.94 L28.65 385.94 ZM42.81 357.15 a0.637549 0.948928 0 1 1 -1.2751 0 a0.637549 0.948928 0 1 1 1.2751 0 Z" class="st11"/></g><g id="shape629-33" transform="translate(28.7008,-12.2127)"><title>Sheet.629</title><rect width="11.371" height="33.153" x="0" y="352.788" class="st2"/></g></g><g id="group649-35" transform="translate(431.937,-319.89)"><title>Sink 2</title><g id="shape650-36"><title>Sheet.650</title><path d="M50.72 354.94 L2.43 354.94 C1.09 354.94 0 356.08 0 357.5 L0 383.38 C0 384.8 1.09 385.94 2.43 385.94 L50.72 385.94 C52.06 385.94 53.15 384.79 53.15 383.38 L53.15 357.5 C53.15 356.08 52.06 354.94 50.72 354.94 Z" class="st11"/></g><g id="shape651-38" transform="translate(1.5647,-1.46519)"><title>Sheet.651</title><path d="M47.82 357.87 L47.82 357.87 L1.91 357.87 C0.69 357.87 0 358.91 0 360.19 L0 383.62 C0 384.9 0.69 385.94 1.91 385.94 L47.82 385.94 C49.03 385.94 50.02 384.9 50.02 383.62 L50.02 360.19 C50.02 358.91 49.03 357.87 47.82 357.87 Z" class="st12"/></g><g id="shape652-40" transform="translate(3.7182,-3.69978)"><title>Sheet.652</title><path d="M40.5 364.56 L29.26 364.56 C25.87 364.56 24.22 367.35 24.22 370.6 L24.22 380.04 C24.22 383.3 25.87 385.94 29.26 385.94 L40.5 385.94 C43.89 385.94 45.53 383.3 45.53 380.04 L45.53 370.46 C45.53 367.2 43.89 364.56 40.5 364.56 ZM16.27 364.56 L5.03 364.56 C1.64 364.56 0 367.35 0 370.6 L0 380.04 C0 383.3 1.64 385.94 5.03 385.94 L16.27 385.94 C19.66 385.94 21.3 383.3 21.3 380.04 L21.3 370.46 C21.3 367.2 19.66 364.56 16.27 364.56 Z" class="st13"/></g><g id="shape653-42" transform="translate(3.72485,-3.69903)"><title>Sheet.653</title><path d="M37.43 383.99 L39.47 385.94 L40.5 385.94 C43.89 385.94 45.53 383.3 45.53 380.04 L45.53 381.79 C45.41 381.8 42.79 380.02 42.79 380.02 L42.79 379.83 C42.79 382.13 41.96 383.99 39.58 383.99 L37.43 383.99 ZM32.76 383.99 L29.41 385.94 L29.26 385.94 C25.86 385.94 25.01 383.61 24.23 381.16 L26.96 379.73 L26.96 379.83 C26.96 382.13 27.79 383.99 30.17 383.99 L32.76 383.99 ZM13.2 383.99 L15.25 385.94 L16.27 385.94 C19.66 385.94 21.3 383.3 21.3 380.04 L21.3 381.79 C21.19 381.8 18.57 380.02 18.57 380.02 L18.57 379.83 C18.57 382.13 17.74 383.99 15.35 383.99 L13.2 383.99 ZM8.53 383.99 L5.19 385.94 L5.03 385.94 C1.64 385.94 0.79 383.61 0 381.16 L2.73 379.73 L2.73 379.83 C2.73 382.13 3.56 383.99 5.95 383.99 L8.53 383.99 Z" class="st14"/></g><g id="shape654-44" transform="translate(3.7182,-3.69978)"><title>Sheet.654</title><path d="M40.5 364.56 L29.26 364.56 C25.87 364.56 24.22 367.35 24.22 370.6 L24.22 380.04 C24.22 383.3 25.87 385.94 29.26 385.94 L40.5 385.94 C43.89 385.94 45.53 383.3 45.53 380.04 L45.53 370.46 C45.53 367.2 43.89 364.56 40.5 364.56 ZM16.27 364.56 L5.03 364.56 C1.64 364.56 0 367.35 0 370.6 L0 380.04 C0 383.3 1.64 385.94 5.03 385.94 L16.27 385.94 C19.66 385.94 21.3 383.3 21.3 380.04 L21.3 370.46 C21.3 367.2 19.66 364.56 16.27 364.56 Z" class="st15"/></g><g id="shape655-46" transform="translate(6.45162,-5.65337)"><title>Sheet.655</title><path d="M36.85 368.47 L27.44 368.47 C25.05 368.47 24.23 370.47 24.23 372.77 L24.23 381.78 C24.23 384.08 25.05 385.94 27.44 385.94 L36.85 385.94 C39.23 385.94 40.06 384.08 40.06 381.78 L40.06 372.62 C40.06 370.33 39.23 368.47 36.85 368.47 ZM12.62 368.47 L3.22 368.47 C0.83 368.47 0 370.47 0 372.77 L0 381.78 C0 384.08 0.83 385.94 3.22 385.94 L12.62 385.94 C15.01 385.94 15.84 384.08 15.84 381.78 L15.84 372.62 C15.84 370.33 15.01 368.47 12.62 368.47 Z" class="st16"/></g><g id="shape656-48" transform="translate(13.0562,-14.0832)"><title>Sheet.656</title><path d="M2.63 384.62 A1.31426 1.32246 0 1 1 0 384.62 A1.31426 1.32246 0 1 1 2.63 384.62 ZM26.85 384.62 A1.31426 1.32246 0 1 1 24.23 384.62 A1.31426 1.32246 0 1 1 26.85 384.62 Z" class="st17"/></g><g id="shape657-50" transform="translate(13.4617,-14.4913)"><title>Sheet.657</title><path d="M1.82 385.03 a0.908679 0.914351 0 1 1 -1.81736 0 a0.908679 0.914351 0 1 1 1.81736 0 ZM26.04 385.03 a0.909418 0.915094 0 1 1 -1.81884 0 a0.909418 0.915094 0 1 1 1.81884 0 Z" class="st18"/></g><g id="shape658-52" transform="translate(26.6058,-25.5632)"><title>Sheet.658</title><path d="M0 384.08 L0 385.94 L4.09 385.94 C4.6 385.94 5.02 385.52 5.02 385.01 C5.02 384.49 4.6 384.08 4.09 384.08 L0 384.08 Z" class="st19"/><path d="M0 385.94 L4.09 385.94 C4.6 385.94 5.02 385.52 5.02 385.01 C5.02 384.49 4.6 384.08 4.09 384.08 L0 384.08" class="st20"/></g><g id="shape659-55" transform="translate(17.6706,-18.2599)"><title>Sheet.659</title><path d="M1.6 385.7 L9.56 378.4 C9.94 378.06 9.95 377.45 9.59 377.05 C9.23 376.66 8.63 376.62 8.25 376.96 L0.29 384.27 C-0.09 384.61 -0.1 385.22 0.26 385.61 C0.62 386.01 1.22 386.05 1.6 385.7 Z" class="st21"/></g><g id="shape660-57" transform="translate(25.5967,-25.526)"><title>Sheet.660</title><ellipse cx=".963" cy="384.972" class="st21" rx=".963" ry=".969"/></g></g><g id="shape661-59" transform="translate(250.959,-192.225)"><title>Person</title><desc>Barber</desc><path d="M17.97 353.63 L4.28 353.63 C3.29 353.63 2.38 353.96 1.66 354.51 C1.16 354.89 0.74 355.38 0.45 355.95 C0.16 356.51 0 357.14 0 357.81 L0 373.68 L3.75 373.68 L3.75 385.94 L18.35 385.94 L18.35 373.68 L22.25 373.68 L22.25 357.81 C22.25 356.85 21.91 355.96 21.35 355.25 C20.96 354.76 20.45 354.35 19.88 354.07 C19.3 353.79 18.66 353.63 17.97 353.63 ZM17.52 345.78 A6.39804 6.18262 -180 1 0 4.73 345.78 A6.39804 6.18262 -180 1 0 17.52 345.78 Z" class="st22"/><path d="M17.97 353.63 L4.28 353.63 C3.29 353.63 2.38 353.96 1.66 354.51 C1.16 354.89 0.74 355.38 0.45 355.95 C0.16 356.51 0 357.14 0 357.81 L0 373.68 L3.75 373.68 L3.75 385.94 L18.35 385.94 L18.35 373.68 L22.25 373.68 L22.25 357.81 C22.25 356.85 21.91 355.96 21.35 355.25 C20.96 354.76 20.45 354.35 19.88 354.07 C19.3 353.79 18.66 353.63 17.97 353.63" class="st23"/><path d="M11.12 385.94 L11.12 376.14" class="st23"/><path d="M3.75 373.68 L3.75 365.23" class="st23"/><path d="M18.35 373.68 L18.35 365.23" class="st23"/><path d="M17.52 345.78 A6.39804 6.18262 -180 1 0 4.73 345.78 A6.39804 6.18262 -180 1 0 17.52 345.78" class="st23"/><text x="-6.45" y="398.94" class="st24">Barber</text></g><g id="shape675-67" transform="translate(0.25,-0.25)"><title>Rectangle.675</title><rect width="304.351" height="158.669" x="0" y="227.272" class="st1"/></g><g id="group676-69" transform="translate(10.0202,-0.25)"><title>Sheet.676</title><g id="group446-70" transform="translate(-328.478,385.941) rotate(-90)"><title>Recliner</title><g id="shape447-71" transform="translate(-1.33893E-12,-0.952592)"><title>Sheet.447</title></g><g id="shape448-73" transform="translate(11.7361,0)"><title>Sheet.448</title><path d="M7.96 343.98 C7.96 343.98 0.3 341.54 0 349.62 L0 375.43 C0.3 383.51 7.96 381.07 7.96 381.07 C14.11 379.98 17.17 376.14 17.17 376.14 L17.17 349.92 C17.17 349.92 14.11 345.07 7.96 343.98 ZM17.17 349.92 C17.17 349.92 15.89 345.89 16.29 342.92 C16.29 342.92 16.69 341.15 17.06 340.83 L39.75 340.83 C39.75 340.83 41.59 340.93 41.81 342.46 L41.78 348.16 C41.78 348.16 41.69 349.82 40.33 349.92 L17.17 349.92 ZM17.17 376.16 C17.17 376.16 15.65 379.72 15.9 382.71 C15.9 382.71 16.31 385.44 16.93 385.26 L39.75 385.26 C39.75 385.26 41.59 385.15 41.81 383.62 L41.78 377.92 C41.78 377.92 41.69 376.27 40.33 376.16 L17.17 376.16 ZM42.11 375.31 C42 375.91 41.74 376.16 41.28 376.16 L18.01 376.16 C17.55 376.16 17.17 375.78 17.17 375.31 L17.17 350.77 C17.17 350.3 17.55 349.93 18.01 349.93 L41.28 349.93 C41.74 349.93 42.03 350.37 42.11 350.77 C42.11 350.77 43.32 355.96 43.32 363.29 C43.32 370.4 42.11 375.31 42.11 375.31 ZM15.94 382.71 C15.03 383.45 13.95 384.1 12.67 384.54 C6.74 386.6 1.85 386.66 1.85 382.89 L1.85 380.18 C4.21 382.28 8 381.07 8 381.07 C10.17 380.68 11.96 379.96 13.36 379.18 C13.36 379.21 13.36 379.23 13.35 379.26 L13.95 378.83 L13.98 378.81 C16.13 377.49 17.21 376.14 17.21 376.16 C17.21 376.16 15.68 379.72 15.94 382.71 ZM16.34 343.09 C16.01 346.04 17.24 349.95 17.24 349.95 C17.24 349.95 16.17 348.25 14.02 346.64 C13.82 346.49 13.61 346.34 13.39 346.19 C11.99 345.25 10.21 344.4 8.04 344.01 C8.04 344.01 4.24 342.8 1.89 344.9 L1.89 342.92 C1.89 342.92 0.78 339.25 7.28 339.66 C7.28 339.66 7.73 339.63 8.46 339.7 C10.2 339.85 13.55 340.49 16.34 343.09 Z" class="st25"/></g><g id="shape449-75" transform="translate(25.0538,-0.680109)"><title>Sheet.449</title><path d="M27.55 369.14 C27.55 369.14 18.18 367.55 6.35 369.24 L27.55 369.14 ZM27.19 357.89 C27.19 357.89 17.82 359.76 5.99 357.77 L27.19 357.89 ZM0 346.85 L0.63 347.3 L0.63 379.49 L0 379.94 C0.55 372.4 0 346.85 0 346.85 ZM21.87 385.94 L22.04 376.84 C19.33 380.85 21.87 385.94 21.87 385.94 ZM9.38 385.94 L9.55 376.84 C6.84 380.85 9.38 385.94 9.38 385.94 ZM21.87 350.61 L22.04 341.51 C19.33 345.51 21.87 350.61 21.87 350.61 ZM9.38 350.61 L9.55 341.51 C6.84 345.51 9.38 350.61 9.38 350.61 Z" class="st26"/><path d="M27.55 369.14 C27.55 369.14 18.18 367.55 6.35 369.24 L27.55 369.14M27.19 357.89 C27.19 357.89 17.82 359.76 5.99 357.77 L27.19 357.89M0 346.85 L0.63 347.3 L0.63 379.49 L0 379.94 C0.55 372.4 0 346.85 0 346.85M22.04 376.84 C19.33 380.85 21.87 385.94 21.87 385.94M9.55 376.84 C6.84 380.85 9.38 385.94 9.38 385.94M22.04 341.51 C19.33 345.51 21.87 350.61 21.87 350.61M9.55 341.51 C6.84 345.51 9.38 350.61 9.38 350.61" class="st27"/></g><g id="shape450-78" transform="translate(11.803,-0.958502)"><title>Sheet.450</title></g></g><g id="group451-80" transform="translate(-266.612,385.941) rotate(-90)"><title>Recliner.451</title><g id="shape452-81" transform="translate(-1.33893E-12,-0.952592)"><title>Sheet.452</title></g><g id="shape453-83" transform="translate(11.7361,0)"><title>Sheet.453</title><path d="M7.96 343.98 C7.96 343.98 0.3 341.54 0 349.62 L0 375.43 C0.3 383.51 7.96 381.07 7.96 381.07 C14.11 379.98 17.17 376.14 17.17 376.14 L17.17 349.92 C17.17 349.92 14.11 345.07 7.96 343.98 ZM17.17 349.92 C17.17 349.92 15.89 345.89 16.29 342.92 C16.29 342.92 16.69 341.15 17.06 340.83 L39.75 340.83 C39.75 340.83 41.59 340.93 41.81 342.46 L41.78 348.16 C41.78 348.16 41.69 349.82 40.33 349.92 L17.17 349.92 ZM17.17 376.16 C17.17 376.16 15.65 379.72 15.9 382.71 C15.9 382.71 16.31 385.44 16.93 385.26 L39.75 385.26 C39.75 385.26 41.59 385.15 41.81 383.62 L41.78 377.92 C41.78 377.92 41.69 376.27 40.33 376.16 L17.17 376.16 ZM42.11 375.31 C42 375.91 41.74 376.16 41.28 376.16 L18.01 376.16 C17.55 376.16 17.17 375.78 17.17 375.31 L17.17 350.77 C17.17 350.3 17.55 349.93 18.01 349.93 L41.28 349.93 C41.74 349.93 42.03 350.37 42.11 350.77 C42.11 350.77 43.32 355.96 43.32 363.29 C43.32 370.4 42.11 375.31 42.11 375.31 ZM15.94 382.71 C15.03 383.45 13.95 384.1 12.67 384.54 C6.74 386.6 1.85 386.66 1.85 382.89 L1.85 380.18 C4.21 382.28 8 381.07 8 381.07 C10.17 380.68 11.96 379.96 13.36 379.18 C13.36 379.21 13.36 379.23 13.35 379.26 L13.95 378.83 L13.98 378.81 C16.13 377.49 17.21 376.14 17.21 376.16 C17.21 376.16 15.68 379.72 15.94 382.71 ZM16.34 343.09 C16.01 346.04 17.24 349.95 17.24 349.95 C17.24 349.95 16.17 348.25 14.02 346.64 C13.82 346.49 13.61 346.34 13.39 346.19 C11.99 345.25 10.21 344.4 8.04 344.01 C8.04 344.01 4.24 342.8 1.89 344.9 L1.89 342.92 C1.89 342.92 0.78 339.25 7.28 339.66 C7.28 339.66 7.73 339.63 8.46 339.7 C10.2 339.85 13.55 340.49 16.34 343.09 Z" class="st25"/></g><g id="shape454-85" transform="translate(25.0538,-0.680109)"><title>Sheet.454</title><path d="M27.55 369.14 C27.55 369.14 18.18 367.55 6.35 369.24 L27.55 369.14 ZM27.19 357.89 C27.19 357.89 17.82 359.76 5.99 357.77 L27.19 357.89 ZM0 346.85 L0.63 347.3 L0.63 379.49 L0 379.94 C0.55 372.4 0 346.85 0 346.85 ZM21.87 385.94 L22.04 376.84 C19.33 380.85 21.87 385.94 21.87 385.94 ZM9.38 385.94 L9.55 376.84 C6.84 380.85 9.38 385.94 9.38 385.94 ZM21.87 350.61 L22.04 341.51 C19.33 345.51 21.87 350.61 21.87 350.61 ZM9.38 350.61 L9.55 341.51 C6.84 345.51 9.38 350.61 9.38 350.61 Z" class="st26"/><path d="M27.55 369.14 C27.55 369.14 18.18 367.55 6.35 369.24 L27.55 369.14M27.19 357.89 C27.19 357.89 17.82 359.76 5.99 357.77 L27.19 357.89M0 346.85 L0.63 347.3 L0.63 379.49 L0 379.94 C0.55 372.4 0 346.85 0 346.85M22.04 376.84 C19.33 380.85 21.87 385.94 21.87 385.94M9.55 376.84 C6.84 380.85 9.38 385.94 9.38 385.94M22.04 341.51 C19.33 345.51 21.87 350.61 21.87 350.61M9.55 341.51 C6.84 345.51 9.38 350.61 9.38 350.61" class="st27"/></g><g id="shape455-88" transform="translate(11.803,-0.958502)"><title>Sheet.455</title></g></g><g id="group456-90" transform="translate(-204.746,385.941) rotate(-90)"><title>Recliner.456</title><g id="shape457-91" transform="translate(-1.33893E-12,-0.952592)"><title>Sheet.457</title></g><g id="shape458-93" transform="translate(11.7361,0)"><title>Sheet.458</title><path d="M7.96 343.98 C7.96 343.98 0.3 341.54 0 349.62 L0 375.43 C0.3 383.51 7.96 381.07 7.96 381.07 C14.11 379.98 17.17 376.14 17.17 376.14 L17.17 349.92 C17.17 349.92 14.11 345.07 7.96 343.98 ZM17.17 349.92 C17.17 349.92 15.89 345.89 16.29 342.92 C16.29 342.92 16.69 341.15 17.06 340.83 L39.75 340.83 C39.75 340.83 41.59 340.93 41.81 342.46 L41.78 348.16 C41.78 348.16 41.69 349.82 40.33 349.92 L17.17 349.92 ZM17.17 376.16 C17.17 376.16 15.65 379.72 15.9 382.71 C15.9 382.71 16.31 385.44 16.93 385.26 L39.75 385.26 C39.75 385.26 41.59 385.15 41.81 383.62 L41.78 377.92 C41.78 377.92 41.69 376.27 40.33 376.16 L17.17 376.16 ZM42.11 375.31 C42 375.91 41.74 376.16 41.28 376.16 L18.01 376.16 C17.55 376.16 17.17 375.78 17.17 375.31 L17.17 350.77 C17.17 350.3 17.55 349.93 18.01 349.93 L41.28 349.93 C41.74 349.93 42.03 350.37 42.11 350.77 C42.11 350.77 43.32 355.96 43.32 363.29 C43.32 370.4 42.11 375.31 42.11 375.31 ZM15.94 382.71 C15.03 383.45 13.95 384.1 12.67 384.54 C6.74 386.6 1.85 386.66 1.85 382.89 L1.85 380.18 C4.21 382.28 8 381.07 8 381.07 C10.17 380.68 11.96 379.96 13.36 379.18 C13.36 379.21 13.36 379.23 13.35 379.26 L13.95 378.83 L13.98 378.81 C16.13 377.49 17.21 376.14 17.21 376.16 C17.21 376.16 15.68 379.72 15.94 382.71 ZM16.34 343.09 C16.01 346.04 17.24 349.95 17.24 349.95 C17.24 349.95 16.17 348.25 14.02 346.64 C13.82 346.49 13.61 346.34 13.39 346.19 C11.99 345.25 10.21 344.4 8.04 344.01 C8.04 344.01 4.24 342.8 1.89 344.9 L1.89 342.92 C1.89 342.92 0.78 339.25 7.28 339.66 C7.28 339.66 7.73 339.63 8.46 339.7 C10.2 339.85 13.55 340.49 16.34 343.09 Z" class="st25"/></g><g id="shape459-95" transform="translate(25.0538,-0.680109)"><title>Sheet.459</title><path d="M27.55 369.14 C27.55 369.14 18.18 367.55 6.35 369.24 L27.55 369.14 ZM27.19 357.89 C27.19 357.89 17.82 359.76 5.99 357.77 L27.19 357.89 ZM0 346.85 L0.63 347.3 L0.63 379.49 L0 379.94 C0.55 372.4 0 346.85 0 346.85 ZM21.87 385.94 L22.04 376.84 C19.33 380.85 21.87 385.94 21.87 385.94 ZM9.38 385.94 L9.55 376.84 C6.84 380.85 9.38 385.94 9.38 385.94 ZM21.87 350.61 L22.04 341.51 C19.33 345.51 21.87 350.61 21.87 350.61 ZM9.38 350.61 L9.55 341.51 C6.84 345.51 9.38 350.61 9.38 350.61 Z" class="st26"/><path d="M27.55 369.14 C27.55 369.14 18.18 367.55 6.35 369.24 L27.55 369.14M27.19 357.89 C27.19 357.89 17.82 359.76 5.99 357.77 L27.19 357.89M0 346.85 L0.63 347.3 L0.63 379.49 L0 379.94 C0.55 372.4 0 346.85 0 346.85M22.04 376.84 C19.33 380.85 21.87 385.94 21.87 385.94M9.55 376.84 C6.84 380.85 9.38 385.94 9.38 385.94M22.04 341.51 C19.33 345.51 21.87 350.61 21.87 350.61M9.55 341.51 C6.84 345.51 9.38 350.61 9.38 350.61" class="st27"/></g><g id="shape460-98" transform="translate(11.803,-0.958502)"><title>Sheet.460</title></g></g><g id="group662-100" transform="translate(44.6364,-88.2862)"><title>Team</title><desc>Customers</desc><g id="shape663-101"><title>Sheet.663</title><path d="M35.32 341.6 A4.70252 4.65305 -180 1 0 25.92 341.6 A4.70252 4.65305 -180 1 0 35.32 341.6 ZM28.41 359.93 C28.78 359.93 29.15 359.98 29.49 360.07 C29.56 359.92 29.63 359.77 29.71 359.63 C30.1 358.97 30.64 358.42 31.31 358.04 C31.92 357.69 32.63 357.49 33.38 357.49 L35.13 357.49 A5.89065 5.82868 0 0 1 35.32 347.64 L25.63 347.64 C24.92 347.64 24.26 347.89 23.74 348.32 C23.42 348.57 23.15 348.9 22.95 349.26 A5.89065 5.82868 0 0 1 26.77 359.93 L28.41 359.93 ZM18.53 361.1 C17.82 361.1 17.17 361.36 16.65 361.78 C16.28 362.07 15.98 362.45 15.77 362.88 C15.57 363.31 15.45 363.8 15.45 364.32 L15.45 376.52 L18.15 376.52 L18.15 370.02 L18.73 370.02 L18.73 385.94 L23.18 385.94 L23.18 378.41 L23.76 378.41 L23.76 385.94 L28.11 385.94 L28.11 370.02 L28.69 370.02 L28.69 376.52 L31.49 376.52 L31.49 364.32 C31.49 363.57 31.25 362.89 30.85 362.35 C30.56 361.97 30.2 361.66 29.79 361.44 C29.37 361.23 28.91 361.1 28.41 361.1 L18.53 361.1 ZM28.17 355.06 A4.70252 4.65305 -180 1 0 18.77 355.06 A4.70252 4.65305 -180 1 0 28.17 355.06 ZM12.78 350.01 A4.70252 4.65305 -180 1 0 3.37 350.01 A4.70252 4.65305 -180 1 0 12.78 350.01 ZM16.05 359.27 C16.05 358.52 15.8 357.84 15.4 357.3 C15.11 356.92 14.75 356.61 14.34 356.39 C13.92 356.17 13.46 356.05 12.96 356.05 L3.08 356.05 C2.37 356.05 1.72 356.3 1.2 356.73 C0.83 357.02 0.53 357.4 0.33 357.83 C0.12 358.26 0 358.75 0 359.27 L0 371.47 L2.7 371.47 L2.7 364.96 L3.28 364.96 L3.28 380.89 L7.73 380.89 L7.73 373.36 L8.31 373.36 L8.31 380.89 L12.66 380.89 L12.66 364.97 L13.24 364.97 L13.24 371.47 L14.26 371.47 L14.26 364.32 C14.26 363.5 14.48 362.73 14.86 362.07 C15.16 361.55 15.57 361.1 16.05 360.75 L16.05 359.27 Z" class="st28"/></g><g id="shape664-103" transform="translate(10.0005,-2.44131)"><title>Sheet.664</title><path d="M11.4 340.37 A4.70252 4.65305 -180 1 0 1.99 340.37 A4.70252 4.65305 -180 1 0 11.4 340.37 ZM7.23 362.58 C7.64 362.44 8.08 362.37 8.53 362.37 L10.28 362.37 A5.89065 5.82868 0 0 1 11.54 352.02 C11.64 351.68 11.78 351.35 11.96 351.05 C12.34 350.39 12.89 349.84 13.55 349.46 C13.88 349.27 14.24 349.13 14.61 349.03 C14.52 348.52 14.31 348.05 14.02 347.65 C13.73 347.28 13.37 346.96 12.96 346.75 C12.54 346.53 12.08 346.41 11.58 346.41 L1.7 346.41 C1.07 346.41 0.49 346.61 0 346.95 A5.89065 5.82868 0 0 1 1.32 357.32 L1.32 357.32 L2.96 357.32 C3.7 357.32 4.4 357.51 5 357.85 C5.6 358.19 6.11 358.66 6.49 359.24 C6.96 359.94 7.23 360.8 7.23 361.71 L7.23 362.58 ZM23.38 361.1 C22.67 361.1 22.02 361.36 21.5 361.78 C21.13 362.07 20.83 362.45 20.63 362.88 C20.61 362.91 20.59 362.95 20.58 362.98 C21.13 363.31 21.59 363.76 21.94 364.29 C22.41 365 22.68 365.85 22.68 366.76 L22.68 376.52 L23 376.52 L23 370.02 L23.58 370.02 L23.58 385.94 L28.03 385.94 L28.03 378.41 L28.61 378.41 L28.61 385.94 L32.96 385.94 L32.96 370.02 L33.54 370.02 L33.54 376.52 L36.35 376.52 L36.35 364.32 C36.35 363.57 36.1 362.89 35.7 362.35 C35.41 361.97 35.05 361.66 34.64 361.44 C34.22 361.23 33.76 361.1 33.26 361.1 L23.38 361.1 ZM33.08 355.06 A4.70252 4.65305 -180 1 0 23.67 355.06 A4.70252 4.65305 -180 1 0 33.08 355.06 Z" class="st28"/></g><g id="shape662-105"><text x="-3.19" y="398.94" class="st24">Customers</text></g></g></g><g id="shape678-107" transform="translate(215.735,-143.219)"><title>Rectangle.678</title><desc>Workspace door</desc><rect width="88.866" height="15.701" x="0" y="370.24" class="st29"/><text x="10.98" y="381.09" class="st30">Workspace door</text></g><g id="shape679-110" transform="translate(126.317,-143.219)"><title>Rectangle.679</title><desc>Waiting room door</desc><rect width="88.866" height="15.701" x="0" y="370.24" class="st29"/><text x="5.72" y="381.09" class="st30">Waiting room door</text></g><g id="shape680-113" transform="translate(340.214,-207.547)"><title>Cut</title><path d="M11.22 380.55 L9.44 380.3 L8.13 378.55 C8.6 378.05 9.04 377.55 9.37 377.11 C10.44 375.69 12.33 372.2 12.33 371.71 C12.33 371.22 11.93 370.24 11.93 370.24 L6.91 376.93 L1.89 370.24 C1.89 370.24 1.48 371.22 1.48 371.71 C1.48 372.2 3.37 375.69 4.44 377.11 C4.78 377.55 5.21 378.05 5.69 378.55 L4.37 380.3 L2.59 380.55 C1.15 380.61 0 381.79 0 383.24 C0 384.73 1.21 385.94 2.71 385.94 C4.21 385.94 5.43 384.73 5.43 383.24 C5.43 383.19 5.42 383.13 5.42 383.08 L5.42 383.08 L5.42 381.15 C5.85 380.77 6.37 380.29 6.91 379.77 C7.44 380.29 7.97 380.77 8.39 381.15 L8.4 383.08 C8.39 383.13 8.39 383.19 8.39 383.24 C8.39 384.73 9.6 385.94 11.1 385.94 C12.6 385.94 13.81 384.73 13.81 383.24 C13.81 381.79 12.66 380.61 11.22 380.55 ZM2.71 384.96 C1.76 384.96 0.99 384.19 0.99 383.24 C0.99 382.3 1.76 381.53 2.71 381.53 C3.67 381.53 4.44 382.3 4.44 383.24 C4.44 384.19 3.67 384.96 2.71 384.96 ZM11.1 384.96 C10.15 384.96 9.37 384.19 9.37 383.24 C9.37 382.3 10.15 381.53 11.1 381.53 C12.05 381.53 12.83 382.3 12.83 383.24 C12.83 384.19 12.05 384.96 11.1 384.96 Z" class="st31"/></g><g id="shape683-115" transform="translate(262.082,-235.49)"><title>Chat</title><path d="M36.39 342.43 L7.91 342.43 A7.91033 8.0369 -180 0 0 0 350.47 L0 366.55 A7.91033 8.0369 -180 0 0 7.91 374.59 L15.03 374.59 L12.49 384.2 a0.938247 0.953259 -180 1 0 1.42565 1.06103 L29.41 374.59 L36.39 374.59 A7.91033 8.0369 -180 0 0 44.3 366.55 L44.3 350.47 A7.91033 8.0369 -180 0 0 36.39 342.43 ZM41.14 366.55 A4.75269 4.82874 0 0 1 36.39 371.37 L28.44 371.37 A49914.9 50713.5 -180 0 0 17.09 379.19 A20094.9 20416.4 0 0 1 19.16 371.37 L7.91 371.37 A4.75269 4.82874 0 0 1 3.16 366.55 L3.16 350.47 A4.75269 4.82874 0 0 1 7.91 345.65 L36.39 345.65 A4.75269 4.82874 0 0 1 41.14 350.47 L41.14 366.55 Z" class="st32"/></g><g id="shape685-117" transform="translate(262.082,-252.705)"><title>Sheet.685</title><desc>...ZZZ</desc><rect width="44.304" height="26.293" x="0" y="359.648" class="st33"/><text x="4.57" y="375.79" class="st24">...ZZZ</text></g><g id="shape689-120" transform="translate(648.023,254.885) rotate(90)"><title>Modern Arrow.689</title><path d="M0 385.94 L21.63 366.55 L27.64 373.25 L18.5 381.44 L51.47 381.44 L51.47 390.44 L18.5 390.44 L27.64 398.63 L21.63 405.34 L0 385.94 Z" class="st28"/></g><g id="shape690-122" transform="translate(-208.899,212.365) rotate(-90)"><title>Modern Arrow.690</title><path d="M0 385.94 L21.63 366.55 L27.64 373.25 L18.5 381.44 L52.22 381.44 L52.22 390.44 L18.5 390.44 L27.64 398.63 L21.63 405.34 L0 385.94 Z" class="st28"/></g></g></svg>