<svg xmlns="http://www.w3.org/2000/svg" xmlns:ev="http://www.w3.org/2001/xml-events" xmlns:xlink="http://www.w3.org/1999/xlink" width="711.171" height="453.966" class="st11" color-interpolation-filters="sRGB" viewBox="0 0 533.378 340.474" xml:space="preserve"><style type="text/css">.st1{fill:#6aac91;stroke:#fff;stroke-linecap:round;stroke-linejoin:round;stroke-width:.5}.st2{fill:#fff;font-family:Cascadia Code;font-size:1.16666em}.st3{fill:#dfeae5;stroke:#fff;stroke-linecap:round;stroke-linejoin:round;stroke-width:.5}.st4{fill:#68ab8f;font-family:Cascadia Code;font-size:1.16666em}.st5{fill:none;stroke:none;stroke-linecap:round;stroke-linejoin:round;stroke-width:.5}.st6{fill:#fff;font-family:Cascadia Mono SemiBold;font-size:1.99999em}.st7{fill:#92aa4c}.st8{stroke:#89a047;stroke-linecap:round;stroke-linejoin:round;stroke-width:3}.st9{fill:#fff;font-family:Cascadia Code;font-size:1.33333em}.st10{baseline-shift:-30.0048%;font-size:.600096em}.st11{fill:none;fill-rule:evenodd;font-size:12px;overflow:visible;stroke-linecap:square;stroke-miterlimit:3}</style><g><title>Page-1</title><g id="shape227-1" transform="translate(50.5457,-275.179)"><title>Square</title><desc>0</desc><rect width="30.11" height="30.11" x="0" y="310.364" class="st1"/><text x="10.95" y="329.62" class="st2">0</text></g><g id="shape228-4" transform="translate(50.5457,-244.352)"><title>Square.228</title><desc>6</desc><rect width="30.11" height="30.11" x="0" y="310.364" class="st1"/><text x="10.95" y="329.62" class="st2">6</text></g><g id="shape229-7" transform="translate(50.5457,-213.526)"><title>Square.229</title><desc>12</desc><rect width="30.11" height="30.11" x="0" y="310.364" class="st1"/><text x="6.85" y="329.62" class="st2">12</text></g><g id="shape230-10" transform="translate(50.5457,-182.699)"><title>Square.230</title><desc>18</desc><rect width="30.11" height="30.11" x="0" y="310.364" class="st1"/><text x="6.85" y="329.62" class="st2">18</text></g><g id="shape231-13" transform="translate(50.5457,-153.307)"><title>Square.231</title><desc>24</desc><rect width="30.11" height="30.11" x="0" y="310.364" class="st1"/><text x="6.85" y="329.62" class="st2">24</text></g><g id="shape232-16" transform="translate(50.5457,-122.48)"><title>Square.232</title><desc>30</desc><rect width="30.11" height="30.11" x="0" y="310.364" class="st1"/><text x="6.85" y="329.62" class="st2">30</text></g><g id="shape233-19" transform="translate(50.5457,-91.6539)"><title>Square.233</title><desc>36</desc><rect width="30.11" height="30.11" x="0" y="310.364" class="st1"/><text x="6.85" y="329.62" class="st2">36</text></g><g id="shape234-22" transform="translate(50.5457,-60.8275)"><title>Square.234</title><desc>42</desc><rect width="30.11" height="30.11" x="0" y="310.364" class="st1"/><text x="6.85" y="329.62" class="st2">42</text></g><g id="shape235-25" transform="translate(50.5457,-31.0764)"><title>Square.235</title><desc>48</desc><rect width="30.11" height="30.11" x="0" y="310.364" class="st1"/><text x="6.85" y="329.62" class="st2">48</text></g><g id="shape236-28" transform="translate(50.5457,-0.25)"><title>Square.236</title><desc>70</desc><rect width="30.11" height="30.11" x="0" y="310.364" class="st3"/><text x="6.85" y="329.62" class="st4">70</text></g><g id="shape237-31" transform="translate(245.541,-275.537)"><title>Square.237</title><desc>0</desc><rect width="30.11" height="30.11" x="0" y="310.364" class="st1"/><text x="10.95" y="329.62" class="st2">0</text></g><g id="shape238-34" transform="translate(245.541,-244.711)"><title>Square.238</title><desc>8</desc><rect width="30.11" height="30.11" x="0" y="310.364" class="st1"/><text x="10.95" y="329.62" class="st2">8</text></g><g id="shape239-37" transform="translate(245.541,-213.884)"><title>Square.239</title><desc>16</desc><rect width="30.11" height="30.11" x="0" y="310.364" class="st1"/><text x="6.85" y="329.62" class="st2">16</text></g><g id="shape240-40" transform="translate(245.541,-183.058)"><title>Square.240</title><desc>24</desc><rect width="30.11" height="30.11" x="0" y="310.364" class="st1"/><text x="6.85" y="329.62" class="st2">24</text></g><g id="shape241-43" transform="translate(245.541,-153.665)"><title>Square.241</title><desc>32</desc><rect width="30.11" height="30.11" x="0" y="310.364" class="st1"/><text x="6.85" y="329.62" class="st2">32</text></g><g id="shape242-46" transform="translate(245.541,-122.839)"><title>Square.242</title><desc>40</desc><rect width="30.11" height="30.11" x="0" y="310.364" class="st1"/><text x="6.85" y="329.62" class="st2">40</text></g><g id="shape243-49" transform="translate(245.541,-92.0124)"><title>Square.243</title><desc>48</desc><rect width="30.11" height="30.11" x="0" y="310.364" class="st1"/><text x="6.85" y="329.62" class="st2">48</text></g><g id="shape244-52" transform="translate(245.541,-61.186)"><title>Square.244</title><desc>61</desc><rect width="30.11" height="30.11" x="0" y="310.364" class="st3"/><text x="6.85" y="329.62" class="st4">61</text></g><g id="shape245-55" transform="translate(245.541,-31.4349)"><title>Square.245</title><desc>69</desc><rect width="30.11" height="30.11" x="0" y="310.364" class="st1"/><text x="6.85" y="329.62" class="st2">69</text></g><g id="shape246-58" transform="translate(245.541,-0.608447)"><title>Square.246</title><desc>77</desc><rect width="30.11" height="30.11" x="0" y="310.364" class="st1"/><text x="6.85" y="329.62" class="st2">77</text></g><g id="shape247-61" transform="translate(452.723,-275.179)"><title>Square.247</title><desc>0</desc><rect width="30.11" height="30.11" x="0" y="310.364" class="st1"/><text x="10.95" y="329.62" class="st2">0</text></g><g id="shape248-64" transform="translate(452.723,-244.352)"><title>Square.248</title><desc>10</desc><rect width="30.11" height="30.11" x="0" y="310.364" class="st1"/><text x="6.85" y="329.62" class="st2">10</text></g><g id="shape249-67" transform="translate(452.723,-213.526)"><title>Square.249</title><desc>20</desc><rect width="30.11" height="30.11" x="0" y="310.364" class="st1"/><text x="6.85" y="329.62" class="st2">20</text></g><g id="shape250-70" transform="translate(452.723,-182.699)"><title>Square.250</title><desc>30</desc><rect width="30.11" height="30.11" x="0" y="310.364" class="st1"/><text x="6.85" y="329.62" class="st2">30</text></g><g id="shape251-73" transform="translate(452.723,-153.307)"><title>Square.251</title><desc>40</desc><rect width="30.11" height="30.11" x="0" y="310.364" class="st1"/><text x="6.85" y="329.62" class="st2">40</text></g><g id="shape252-76" transform="translate(452.723,-122.48)"><title>Square.252</title><desc>50</desc><rect width="30.11" height="30.11" x="0" y="310.364" class="st1"/><text x="6.85" y="329.62" class="st2">50</text></g><g id="shape253-79" transform="translate(452.723,-91.6539)"><title>Square.253</title><desc>60</desc><rect width="30.11" height="30.11" x="0" y="310.364" class="st1"/><text x="6.85" y="329.62" class="st2">60</text></g><g id="shape254-82" transform="translate(452.723,-60.8275)"><title>Square.254</title><desc>70</desc><rect width="30.11" height="30.11" x="0" y="310.364" class="st1"/><text x="6.85" y="329.62" class="st2">70</text></g><g id="shape255-85" transform="translate(452.723,-31.0764)"><title>Square.255</title><desc>80</desc><rect width="30.11" height="30.11" x="0" y="310.364" class="st1"/><text x="6.85" y="329.62" class="st2">80</text></g><g id="shape256-88" transform="translate(452.723,-0.25)"><title>Square.256</title><desc>90</desc><rect width="30.11" height="30.11" x="0" y="310.364" class="st1"/><text x="6.85" y="329.62" class="st2">90</text></g><g id="shape257-91" transform="translate(0.25,-317.475)"><title>Sheet.257</title><desc>A</desc><rect width="130.701" height="17.198" x="0" y="323.276" class="st5"/><text x="58.32" y="339.08" class="st6">A</text></g><g id="shape259-94" transform="translate(195.245,-317.475)"><title>Sheet.259</title><desc>B</desc><rect width="130.701" height="17.198" x="0" y="323.276" class="st5"/><text x="58.32" y="339.08" class="st6">B</text></g><g id="shape260-97" transform="translate(402.427,-317.475)"><title>Sheet.260</title><desc>C</desc><rect width="130.701" height="17.198" x="0" y="323.276" class="st5"/><text x="58.32" y="339.08" class="st6">C</text></g><g id="shape263-100" transform="translate(142.522,-253.739) rotate(10.4692)"><title>Line Arrow</title><path d="M161.28 337.28 L161.28 343.67 L167.68 340.47 L161.28 337.28 Z" class="st7"/><path d="M161.28 337.28 L161.28 343.67 L167.68 340.47 L161.28 337.28" class="st8"/><path d="M0 340.47 L161.28 340.47" class="st8"/></g><g id="shape264-104" transform="translate(123.31,-251.167)"><title>Sheet.264</title><desc>m1</desc><rect width="79.575" height="17.198" x="0" y="323.276" class="st5"/><text x="32.29" y="336.68" class="st9">m<tspan class="st10" dy="-.374em">1</tspan></text></g><g id="shape265-108" transform="translate(332.065,-193.406) rotate(9.53754)"><title>Line Arrow.265</title><path d="M173.16 337.28 L173.16 343.67 L179.55 340.47 L173.16 337.28 Z" class="st7"/><path d="M173.16 337.28 L173.16 343.67 L179.55 340.47 L173.16 337.28" class="st8"/><path d="M0 340.47 L173.16 340.47" class="st8"/></g><g id="shape266-112" transform="translate(330.851,-189.155)"><title>Sheet.266</title><desc>m2</desc><rect width="79.575" height="17.198" x="0" y="323.276" class="st5"/><text x="32.29" y="336.68" class="st9">m<tspan class="st10" dy="-.374em">2</tspan></text></g><g id="shape267-116" transform="translate(510.458,569.308) rotate(170.237)"><title>Line Arrow.267</title><path d="M173.28 337.28 L173.28 343.67 L179.67 340.47 L173.28 337.28 Z" class="st7"/><path d="M173.28 337.28 L173.28 343.67 L179.67 340.47 L173.28 337.28" class="st8"/><path d="M0 340.47 L173.28 340.47" class="st8"/></g><g id="shape268-120" transform="translate(324.399,-98.4684)"><title>Sheet.268</title><desc>m3</desc><rect width="79.575" height="17.198" x="0" y="323.276" class="st5"/><text x="32.29" y="336.68" class="st9">m<tspan class="st10" dy="-.374em">3</tspan></text></g><g id="shape270-124" transform="translate(308.813,628.528) rotate(169.29)"><title>Line Arrow.270</title><path d="M161.42 337.28 L161.42 343.67 L167.81 340.47 L161.42 337.28 Z" class="st7"/><path d="M161.42 337.28 L161.42 343.67 L167.81 340.47 L161.42 337.28" class="st8"/><path d="M0 340.47 L161.42 340.47" class="st8"/></g><g id="shape271-128" transform="translate(87.1072,-31.4349)"><title>Sheet.271</title><desc>m4</desc><rect width="79.575" height="17.198" x="0" y="323.276" class="st5"/><text x="32.29" y="336.68" class="st9">m<tspan class="st10" dy="-.374em">4</tspan></text></g></g></svg>