<?xml version="1.0" encoding="UTF-8" standalone="no"?>
<!DOCTYPE svg PUBLIC "-//W3C//DTD SVG 1.1//EN" "http://www.w3.org/Graphics/SVG/1.1/DTD/svg11.dtd">
<!-- Generated by Microsoft Visio, SVG Export quartz-crystal-oscillator-circuit.svg Page-1 -->
<svg xmlns="http://www.w3.org/2000/svg" xmlns:xlink="http://www.w3.org/1999/xlink" xmlns:ev="http://www.w3.org/2001/xml-events"
		width="7.06533in" height="3.31757in" viewBox="0 0 508.704 238.865" xml:space="preserve" color-interpolation-filters="sRGB"
		class="st14">
	<style type="text/css">
	<![CDATA[
		.st1 {fill:#6aac91;visibility:hidden}
		.st2 {stroke:#6aac91;stroke-linecap:butt;stroke-width:2.69858}
		.st3 {stroke:#6aac91;stroke-linecap:butt;stroke-width:5.39717}
		.st4 {fill:#6aac91;font-family:Cascadia Code;font-size:0.916672em}
		.st5 {font-size:1em}
		.st6 {fill:#6aac91}
		.st7 {stroke:#63a288;stroke-linecap:round;stroke-linejoin:round;stroke-width:3}
		.st8 {stroke:#6aac91;stroke-linecap:butt;stroke-width:5.9487}
		.st9 {fill:none;stroke:none;stroke-linecap:round;stroke-linejoin:round;stroke-width:0.5}
		.st10 {fill:#6aab90;font-family:Cascadia Mono SemiBold;font-size:1.33333em}
		.st11 {marker-end:url(#mrkr10-34);stroke:#63a288;stroke-linecap:round;stroke-linejoin:round;stroke-width:3}
		.st12 {fill:#63a288;fill-opacity:1;stroke:#63a288;stroke-opacity:1;stroke-width:0.54347826086957}
		.st13 {fill:#6aab90;font-family:Cascadia Code;font-size:0.916672em}
		.st14 {fill:none;fill-rule:evenodd;font-size:12px;overflow:visible;stroke-linecap:square;stroke-miterlimit:3}
	]]>
	</style>

	<defs id="Markers">
		<g id="lend10">
			<path
					d="M 0 0.75 C -0.414214 0.75 -0.75 0.414214 -0.75 0 -0.75 -0.414214 -0.414214 -0.75 0 -0.75 0.414214 -0.75 0.75 -0.414214 0.75 0 0.75 0.414214 0.414214 0.75 0 0.75 Z "
					style="stroke:none"/>
		</g>
		<marker id="mrkr10-34" class="st12" refX="-1.38" orient="auto" markerUnits="strokeWidth" overflow="visible">
			<use xlink:href="#lend10" transform="scale(-1.84,-1.84) "/>
		</marker>
	</defs>
	<g>
		<title>Page-1</title>
		<g id="group34-1" transform="translate(2.71924,-12.5636)">
			<title>Sheet.34</title>
			<g id="group2-2" transform="translate(0,-15.8402)">
				<title>Oscillator</title>
				<desc>Oscillator 32768 Hz</desc>
				<g id="shape3-3" transform="translate(1.68661,-1.68661)">
					<title>Sheet.3</title>
					<ellipse cx="32.0457" cy="206.82" rx="32.0457" ry="32.0457" class="st1"/>
					<ellipse cx="32.0457" cy="206.82" rx="32.0457" ry="32.0457" class="st2"/>
				</g>
				<g id="shape4-6" transform="translate(11.4582,-22.5952)">
					<title>Sheet.4</title>
					<path d="M22.27 227.73 C22.27 221.58 17.29 216.59 11.14 216.59 C4.99 216.59 0 221.58 0 227.73" class="st3"/>
					<path d="" class="st3"/>
					<path d="M44.55 227.73 C44.55 233.88 39.56 238.87 33.41 238.87 C27.26 238.87 22.27 233.88 22.27 227.73"
							class="st3"/>
				</g>
				<g id="shape2-11">
					<text x="1.51" y="249.77" class="st4">Oscillator <tspan x="7.95" dy="1.2em" class="st5">32768 Hz</tspan></text>				</g>
			</g>
			<g id="shape5-14" transform="translate(92.7638,-15.8402)">
				<title>Alternating pulse</title>
				<path d="M55.4 205.13 C55.4 210.36 53.13 213.58 51.5 213.58 C49.7 213.58 47.6 209.89 47.6 205.13 C47.6 198.13 45.6
							 192.64 39.65 192.64 C33.73 192.64 31.71 198.13 31.71 205.13 C31.71 210.36 30.13 213.58 27.81 213.58
							 C25.52 213.58 23.91 210.36 23.91 205.13 C23.91 198.13 21.81 192.64 15.96 192.64 C10.29 192.64 8.01 198.13
							 8.01 205.13 L12.06 205.13 C12.06 199.9 13.27 196.69 15.96 196.69 C18.61 196.69 19.86 199.9 19.86 205.13
							 C19.86 212.14 22.15 217.62 27.81 217.62 C33.34 217.62 35.76 212.14 35.76 205.13 C35.76 199.9 36.88 196.69
							 39.65 196.69 C42.84 196.69 43.55 200.38 43.55 205.13 C43.55 212.14 46.1 217.62 51.5 217.62 C57.07 217.62
							 59.45 212.14 59.45 205.13 L55.4 205.13 Z" class="st6"/>
				<path d="M0 205.13 L12.09 205.13" class="st2"/>
				<path d="M67.46 205.13 L55.4 205.13" class="st2"/>
			</g>
			<g id="shape7-18" transform="translate(66.1153,-42.4859)">
				<title>Dynamic connector</title>
				<path d="M0 231.78 L26.65 231.78" class="st7"/>
			</g>
			<g id="group20-21" transform="translate(185.528,8.52651E-14)">
				<title>Sheet.20</title>
				<g id="shape17-22" transform="translate(16.2242,2.84217E-14)">
					<title>Material</title>
					<desc>Counter</desc>
					<path d="M2.97 209.78 L2.97 168.81 L96.17 168.81 L96.17 209.78 L2.97 209.78" class="st8"/>
					<text x="49.8" y="224.98" class="st4">Counter</text>				</g>
				<g id="shape18-26" transform="translate(16.8661,-39.0584)">
					<title>Sheet.18</title>
					<desc>0</desc>
					<rect x="0" y="221.55" width="97.6998" height="17.3149" class="st9"/>
					<text x="44.16" y="235.01" class="st10">0</text>				</g>
			</g>
			<g id="shape24-29" transform="translate(160.228,-42.4859)">
				<title>Dynamic connector.24</title>
				<path d="M0 231.78 L37.38 231.78" class="st11"/>
			</g>
			<g id="group25-35" transform="translate(364.47,-127.157)">
				<title>Sheet.25</title>
				<g id="shape26-36" transform="translate(16.2242,2.84217E-14)">
					<title>Material</title>
					<desc>Register</desc>
					<path d="M2.97 209.78 L2.97 168.81 L96.17 168.81 L96.17 209.78 L2.97 209.78" class="st8"/>
					<text x="43.36" y="224.98" class="st4">Register</text>				</g>
				<g id="shape27-40" transform="translate(16.8661,-39.0584)">
					<title>Sheet.27</title>
					<desc>32768</desc>
					<rect x="0" y="221.55" width="97.6998" height="17.3149" class="st9"/>
					<text x="25.41" y="235.01" class="st10">32768</text>				</g>
			</g>
			<g id="shape30-43" transform="translate(380.694,-176.729)">
				<title>Dynamic connector.30</title>
				<path d="M0 238.87 L-129.37 238.87 L-129.37 341.4" class="st11"/>
			</g>
			<g id="shape31-48" transform="translate(300.897,-56.6591)">
				<title>Dynamic connector.31</title>
				<path d="M0 245.95 L116.62 245.95" class="st11"/>
			</g>
			<g id="shape32-53" transform="translate(414.977,-37.298)">
				<title>Sheet.32</title>
				<desc>Interrupt</desc>
				<rect x="0" y="215.065" width="84.3307" height="23.8" class="st9"/>
				<text x="13.16" y="230.27" class="st13">Interrupt</text>			</g>
		</g>
	</g>
</svg>
